<svg width="21" height="20" viewBox="0 0 21 20" fill="none" xmlns="http://www.w3.org/2000/svg">
<path d="M10.8492 0C16.363 0 20.8492 3.64 20.8492 8.115C20.8492 9.90625 20.1555 11.5188 18.7055 13.1075C16.608 15.5225 11.9167 18.4638 10.8492 18.9138C9.81174 19.3513 9.93174 18.6675 9.97924 18.3975L9.98299 18.375L10.1255 17.5188C10.1592 17.2638 10.1942 16.8675 10.093 16.615C9.98049 16.3363 9.53799 16.1913 9.21299 16.1213C4.40674 15.4875 0.849243 12.1263 0.849243 8.115C0.849243 3.64 5.33674 0 10.8492 0ZM7.12674 9.6075H5.22049V6.1475C5.22049 6.096 5.20012 6.04659 5.16382 6.01006C5.12752 5.97352 5.07824 5.95283 5.02674 5.9525H4.32424C4.29864 5.9525 4.27328 5.95754 4.24962 5.96734C4.22596 5.97714 4.20446 5.99151 4.18636 6.00961C4.16825 6.02772 4.15389 6.04922 4.14409 6.07288C4.13429 6.09654 4.12924 6.12189 4.12924 6.1475V10.505C4.12924 10.5563 4.15049 10.605 4.18424 10.6388V10.64L4.18674 10.6425L4.18924 10.645C4.22549 10.6799 4.27395 10.6992 4.32424 10.6988H7.12674C7.23424 10.6988 7.32049 10.6113 7.32049 10.5038V9.80375C7.32066 9.77814 7.31578 9.75275 7.30613 9.72903C7.29648 9.70531 7.28226 9.68372 7.26426 9.6655C7.24627 9.64727 7.22487 9.63277 7.20127 9.62282C7.17768 9.61287 7.15235 9.60766 7.12674 9.6075ZM8.11549 5.9525C8.06378 5.9525 8.01418 5.97305 7.97761 6.00961C7.94104 6.04618 7.92049 6.09578 7.92049 6.1475V10.505C7.92049 10.6125 8.00799 10.6988 8.11549 10.6988H8.81799C8.92549 10.6988 9.01174 10.6113 9.01174 10.505V6.1475C9.01174 6.096 8.99137 6.04659 8.95507 6.01006C8.91877 5.97352 8.86949 5.95283 8.81799 5.9525H8.11549ZM12.9442 5.9525C12.8925 5.9525 12.8429 5.97305 12.8064 6.00961C12.7698 6.04618 12.7492 6.09578 12.7492 6.1475V8.735L10.753 6.04C10.7479 6.03344 10.7425 6.02718 10.7367 6.02125V6.02C10.7328 6.01562 10.7286 6.01145 10.7242 6.0075L10.7205 6.00375C10.7162 5.99965 10.7116 5.99589 10.7067 5.9925H10.7055L10.6992 5.9875L10.6955 5.985C10.6935 5.98354 10.6914 5.98229 10.6892 5.98125L10.6792 5.975H10.6767L10.673 5.9725L10.6605 5.9675L10.6555 5.965C10.6514 5.96352 10.6472 5.96227 10.643 5.96125H10.6405L10.6367 5.96L10.6255 5.9575H10.618L10.6142 5.95625H10.6092L10.6067 5.955H9.88924C9.83774 5.955 9.78833 5.97537 9.7518 6.01167C9.71526 6.04797 9.69457 6.09725 9.69424 6.14875V10.5063C9.69424 10.6138 9.78174 10.7 9.88924 10.7H10.5892C10.698 10.7 10.7855 10.6125 10.7855 10.5063V7.91875L12.7855 10.6188C12.7988 10.6374 12.8153 10.6534 12.8342 10.6663L12.8355 10.6675L12.848 10.675L12.853 10.6775C12.8562 10.6794 12.8596 10.6811 12.863 10.6825L12.8717 10.6863L12.878 10.6888C12.8821 10.6901 12.8863 10.6914 12.8905 10.6925H12.8942C12.9105 10.6972 12.9273 10.6997 12.9442 10.7H13.6442C13.753 10.7 13.8405 10.6125 13.8405 10.5063V6.1475C13.8405 6.09578 13.8199 6.04618 13.7834 6.00961C13.7468 5.97305 13.6972 5.9525 13.6455 5.9525H12.9442ZM17.713 6.84875V6.14875C17.7132 6.12314 17.7083 6.09775 17.6986 6.07403C17.689 6.05031 17.6748 6.02872 17.6568 6.0105C17.6388 5.99227 17.6174 5.97777 17.5938 5.96782C17.5702 5.95787 17.5449 5.95266 17.5192 5.9525H14.7167C14.6663 5.95256 14.6179 5.97229 14.5817 6.0075H14.5805L14.5792 6.01L14.5767 6.01375C14.5418 6.04956 14.5221 6.09749 14.5217 6.1475V10.505C14.5217 10.5563 14.543 10.605 14.5767 10.6388L14.5792 10.6425L14.5817 10.645C14.6181 10.6798 14.6665 10.699 14.7167 10.6988H17.5192C17.6267 10.6988 17.713 10.6113 17.713 10.5038V9.80375C17.7132 9.77814 17.7083 9.75275 17.6986 9.72903C17.689 9.70531 17.6748 9.68372 17.6568 9.6655C17.6388 9.64727 17.6174 9.63277 17.5938 9.62282C17.5702 9.61287 17.5449 9.60766 17.5192 9.6075H15.6117V8.87125H17.518C17.6255 8.87125 17.7117 8.78375 17.7117 8.67625V7.97625C17.7119 7.95064 17.707 7.92525 17.6974 7.90153C17.6877 7.87781 17.6735 7.85622 17.6555 7.838C17.6375 7.81977 17.6161 7.80527 17.5925 7.79532C17.5689 7.78537 17.5436 7.78016 17.518 7.78H15.6117V7.04375H17.518C17.6255 7.04375 17.7117 6.95625 17.7117 6.84875H17.713Z" fill="#757676"/>
</svg>
